<?xml version="1.0" encoding="UTF-8"?>
<svg width="274px" height="274px" viewBox="0 0 274 274" version="1.1" xmlns="http://www.w3.org/2000/svg" xmlns:xlink="http://www.w3.org/1999/xlink">
    <!-- Generator: Sketch 44.1 (41455) - http://www.bohemiancoding.com/sketch -->
    <title>Group 2</title>
    <desc>Created with Sketch.</desc>
    <defs></defs>
    <g id="Page-1" stroke="none" stroke-width="1" fill="none" fill-rule="evenodd">
        <g id="Group-2">
            <polygon id="Star" fill="#B8E986" points="137.00887 266.855283 100.433805 273.50887 72.0856635 249.459162 37.0839347 236.933805 24.5585779 201.932076 0.508869908 173.583935 7.16245719 137.00887 0.508869908 100.433805 24.5585779 72.0856635 37.0839347 37.0839347 72.0856635 24.5585779 100.433805 0.508869908 137.00887 7.16245719 173.583935 0.508869908 201.932076 24.5585779 236.933805 37.0839347 249.459162 72.0856635 273.50887 100.433805 266.855283 137.00887 273.50887 173.583935 249.459162 201.932076 236.933805 236.933805 201.932076 249.459162 173.583935 273.50887"></polygon>
            <g id="Group-3" transform="translate(56.000000, 75.000000)" fill="#FFFFFF">
                <rect id="Rectangle-9" transform="translate(32.560061, 88.237279) rotate(-38.000000) translate(-32.560061, -88.237279) " x="20.1542052" y="52.5917579" width="24.8117117" height="71.291042" rx="10"></rect>
                <rect id="Rectangle-9-Copy" transform="translate(99.250213, 60.095934) rotate(-312.000000) translate(-99.250213, -60.095934) " x="86.8443572" y="-14.4477897" width="24.8117117" height="149.087448" rx="10"></rect>
            </g>
        </g>
    </g>
</svg>