<?xml version="1.0" encoding="utf-8"?>
<!-- Generator: Adobe Illustrator 16.0.0, SVG Export Plug-In . SVG Version: 6.00 Build 0)  -->
<!DOCTYPE svg PUBLIC "-//W3C//DTD SVG 1.1//EN" "http://www.w3.org/Graphics/SVG/1.1/DTD/svg11.dtd">
<svg version="1.1" id="Layer_1" xmlns="http://www.w3.org/2000/svg" xmlns:xlink="http://www.w3.org/1999/xlink" x="0px" y="0px"
	 width="512px" height="512px" viewBox="0 0 512 512" enable-background="new 0 0 512 512" xml:space="preserve">
<g id="vip_invitation">
	<g>
		<rect x="0.007" y="106.676" fill="#F6BB42" width="511.986" height="319.992"/>
	</g>
	<g>
		<rect x="0.007" y="85.333" fill="#FFCE54" width="511.986" height="319.992"/>
	</g>
	<g>
		<path fill="#ED5564" d="M469.339,330.67V160.002c-17.672,0-32-14.327-32-31.999H74.661c0,17.672-14.327,31.999-31.999,31.999
			V330.67c17.672,0,31.999,14.328,31.999,31.998h362.678C437.339,344.998,451.667,330.67,469.339,330.67z"/>
	</g>
	<path fill="#DA4453" d="M437.339,128.003H74.661c0,17.672-14.327,31.999-31.999,31.999V330.67
		c17.672,0,31.999,14.328,31.999,31.998h362.678c0-17.67,14.328-31.998,32-31.998V160.002
		C451.667,160.002,437.339,145.675,437.339,128.003z M448.011,313.779c-12.281,5.391-22.155,15.266-27.546,27.547H91.536
		c-5.391-12.281-15.266-22.156-27.546-27.547V176.877c12.28-5.375,22.155-15.25,27.546-27.546h328.929
		c5.391,12.296,15.265,22.171,27.546,27.546V313.779z"/>
	<g>
		<polygon fill="#FFCE54" points="175.83,282.625 144.644,187.986 122.816,187.986 165.003,308.014 185.971,308.014 
			228.673,187.986 207.33,187.986 		"/>
		<rect x="249.125" y="187.986" fill="#FFCE54" width="20.359" height="120.027"/>
		<path fill="#FFCE54" d="M382.185,197.658c-6.422-6.421-15.891-9.671-28.124-9.671h-52.937v120.027h20.375V261h32.53h0.641
			c11.937,0,21.202-3.234,27.515-9.609c6.422-6.469,9.672-15.516,9.672-26.906C391.856,213.111,388.606,204.08,382.185,197.658z
			 M366.294,238.391c-3.422,3.094-9.016,4.672-16.64,4.672c-0.234,0-0.469-0.016-0.75-0.016h-27.405v-37.124h27.405
			c8.015,0,13.874,1.609,17.405,4.75c3.484,3.125,5.188,7.641,5.188,13.812C371.497,230.672,369.794,235.219,366.294,238.391z"/>
	</g>
</g>
</svg>
