<?xml version="1.0" encoding="utf-8"?>
<!-- Generator: Adobe Illustrator 16.0.0, SVG Export Plug-In . SVG Version: 6.00 Build 0)  -->
<!DOCTYPE svg PUBLIC "-//W3C//DTD SVG 1.1//EN" "http://www.w3.org/Graphics/SVG/1.1/DTD/svg11.dtd">
<svg version="1.1" id="Layer_1" xmlns="http://www.w3.org/2000/svg" xmlns:xlink="http://www.w3.org/1999/xlink" x="0px" y="0px"
	 width="512px" height="512px" viewBox="0 0 512 512" enable-background="new 0 0 512 512" xml:space="preserve">
<g id="medal_2">
	<path fill="#FFCE54" d="M400.731,339.811c-1.25-3.859-4.594-6.672-8.609-7.25l-87.451-12.701l-39.109-79.242
		c-1.797-3.641-5.5-5.945-9.562-5.945c-4.062,0-7.766,2.305-9.562,5.945l-39.108,79.242l-87.444,12.701
		c-4.023,0.578-7.359,3.391-8.617,7.25c-1.25,3.859-0.203,8.109,2.703,10.938l63.272,61.688l-14.938,87.092
		c-0.68,4,0.961,8.047,4.25,10.422c1.852,1.359,4.055,2.047,6.266,2.047c1.703,0,3.406-0.406,4.961-1.234L256,469.652l78.217,41.109
		c3.594,1.891,7.953,1.578,11.234-0.812c3.28-2.375,4.921-6.422,4.249-10.422l-14.937-87.092l63.265-61.688
		C400.935,347.92,401.981,343.67,400.731,339.811z"/>
	<path fill="#5D9CEC" d="M362.606,0.004H149.275c-5.891,0-10.672,4.773-10.672,10.672v149.326c0,5.89,4.781,10.671,10.672,10.671
		h213.331c5.891,0,10.672-4.781,10.672-10.671V10.676C373.278,4.778,368.497,0.004,362.606,0.004z"/>
	<path fill="#4A89DC" d="M202.603,42.676c0,5.891-4.773,10.664-10.664,10.664s-10.664-4.773-10.664-10.664
		c0-5.898,4.773-10.671,10.664-10.671S202.603,36.778,202.603,42.676z"/>
	<path fill="#4A89DC" d="M245.273,42.676c0,5.891-4.781,10.664-10.671,10.664c-5.891,0-10.664-4.773-10.664-10.664
		c0-5.898,4.773-10.671,10.664-10.671C240.492,32.004,245.273,36.778,245.273,42.676z"/>
	<path fill="#4A89DC" d="M287.937,42.676c0,5.891-4.766,10.664-10.656,10.664c-5.898,0-10.68-4.773-10.68-10.664
		c0-5.898,4.781-10.671,10.68-10.671C283.171,32.004,287.937,36.778,287.937,42.676z"/>
	<path fill="#4A89DC" d="M330.607,42.676c0,5.891-4.781,10.664-10.672,10.664c-5.89,0-10.655-4.773-10.655-10.664
		c0-5.898,4.766-10.671,10.655-10.671C325.826,32.004,330.607,36.778,330.607,42.676z"/>
	<path fill="#4A89DC" d="M202.603,128.002c0,5.891-4.773,10.672-10.664,10.672s-10.664-4.781-10.664-10.672
		s4.773-10.664,10.664-10.664S202.603,122.112,202.603,128.002z"/>
	<path fill="#4A89DC" d="M245.273,128.002c0,5.891-4.781,10.672-10.671,10.672c-5.891,0-10.664-4.781-10.664-10.672
		s4.773-10.664,10.664-10.664C240.492,117.338,245.273,122.112,245.273,128.002z"/>
	<path fill="#4A89DC" d="M287.937,128.002c0,5.891-4.766,10.672-10.656,10.672c-5.898,0-10.68-4.781-10.68-10.672
		s4.781-10.664,10.68-10.664C283.171,117.338,287.937,122.112,287.937,128.002z"/>
	<path fill="#4A89DC" d="M330.607,128.002c0,5.891-4.781,10.672-10.672,10.672c-5.89,0-10.655-4.781-10.655-10.672
		s4.766-10.664,10.655-10.664C325.826,117.338,330.607,122.112,330.607,128.002z"/>
	<path fill="#4A89DC" d="M223.938,85.339c0,5.891-4.773,10.664-10.664,10.664c-5.89,0-10.671-4.773-10.671-10.664
		s4.781-10.664,10.671-10.664C219.165,74.675,223.938,79.449,223.938,85.339z"/>
	<circle fill="#4A89DC" cx="255.937" cy="85.339" r="10.664"/>
	<path fill="#4A89DC" d="M309.28,85.339c0,5.891-4.781,10.664-10.672,10.664s-10.672-4.773-10.672-10.664
		s4.781-10.664,10.672-10.664S309.28,79.449,309.28,85.339z"/>
	<g>
		<path fill="#F6BB42" d="M255.938,213.337c-5.891,0-10.664-4.773-10.664-10.664v-42.671c0-5.891,4.773-10.664,10.664-10.664
			c5.89,0,10.663,4.773,10.663,10.664v42.671C266.601,208.563,261.827,213.337,255.938,213.337z"/>
	</g>
	<g>
		<path fill="#FFCE54" d="M255.938,256c-17.641,0-32-14.352-32-32c0-17.64,14.359-31.999,32-31.999
			c17.655,0,31.999,14.359,31.999,31.999C287.937,241.649,273.593,256,255.938,256z M255.938,213.337
			c-5.883,0-10.664,4.781-10.664,10.664c0,5.883,4.781,10.672,10.664,10.672c5.882,0,10.663-4.789,10.663-10.672
			C266.601,218.118,261.819,213.337,255.938,213.337z"/>
	</g>
	<path fill="#F6BB42" d="M304.671,319.859l-39.109-79.242c-1.797-3.641-5.5-5.945-9.562-5.945v149.326L304.671,319.859z"/>
	<path fill="#F6BB42" d="M334.764,412.436l63.265-61.688c2.906-2.828,3.953-7.078,2.703-10.938L256,383.998L334.764,412.436z"/>
	<path fill="#F6BB42" d="M256,469.652l78.217,41.109c2.594,1.359,5.562,1.578,8.25,0.703l2.984-1.516L256,383.998V469.652z"/>
	<path fill="#F6BB42" d="M177.244,412.436l-14.938,87.092c-0.68,4,0.961,8.047,4.25,10.422L256,383.998L177.244,412.436z"/>
	<path fill="#F6BB42" d="M111.268,339.811L256,383.998l-48.671-64.139l-87.444,12.701
		C115.862,333.139,112.526,335.951,111.268,339.811z"/>
	<g>
		<path fill="#4A89DC" d="M373.278,170.673H138.604c-5.891,0-10.664-4.781-10.664-10.671c0-5.891,4.773-10.664,10.664-10.664
			h234.675c5.891,0,10.656,4.773,10.656,10.664C383.935,165.892,379.169,170.673,373.278,170.673z"/>
	</g>
	<g>
		<path fill="#4A89DC" d="M373.278,21.34H138.604c-5.891,0-10.664-4.773-10.664-10.664c0-5.898,4.773-10.672,10.664-10.672h234.675
			c5.891,0,10.656,4.773,10.656,10.672C383.935,16.567,379.169,21.34,373.278,21.34z"/>
	</g>
</g>
</svg>
