<?xml version="1.0" encoding="utf-8"?>
<!-- Generator: Adobe Illustrator 16.0.0, SVG Export Plug-In . SVG Version: 6.00 Build 0)  -->
<!DOCTYPE svg PUBLIC "-//W3C//DTD SVG 1.1//EN" "http://www.w3.org/Graphics/SVG/1.1/DTD/svg11.dtd">
<svg version="1.1" id="Layer_1" xmlns="http://www.w3.org/2000/svg" xmlns:xlink="http://www.w3.org/1999/xlink" x="0px" y="0px"
	 width="512px" height="512px" viewBox="0 0 512 512" enable-background="new 0 0 512 512" xml:space="preserve">
<g id="coin">
	<g>
		<path fill="#F6BB42" d="M470.654,224.007C443.113,131.505,357.445,64.044,256,64.044c-101.446,0-187.129,67.461-214.67,159.963
			h-9.279v63.985c0,123.69,100.258,223.949,223.949,223.949c123.676,0,223.949-100.259,223.949-223.949v-63.985H470.654z"/>
	</g>
	<path fill="#E8AA3D" d="M117.219,463.765c6.795,5.374,13.918,10.356,21.323,14.934v-80.075h-21.323V463.765z"/>
	<path fill="#E8AA3D" d="M64.044,403.403c6.295,10.466,13.45,20.37,21.323,29.618v-81.7l-21.323-21.995V403.403z"/>
	<path fill="#E8AA3D" d="M181.345,499.179c6.952,2.452,14.075,4.576,21.323,6.357v-74.358h-21.323V499.179z"/>
	<path fill="#E8AA3D" d="M245.331,511.691c3.53,0.156,7.092,0.25,10.669,0.25c3.578,0,7.123-0.094,10.654-0.25v-70.391h-21.324
		V511.691z"/>
	<path fill="#E8AA3D" d="M330.639,499.179v-68.001h-21.322v74.358C316.58,503.755,323.688,501.631,330.639,499.179z"/>
	<path fill="#E8AA3D" d="M394.625,463.874v-65.251h-21.324v80.169C380.705,474.23,387.83,469.248,394.625,463.874z"/>
	<path fill="#E8AA3D" d="M447.957,403.403v-76.295l-21.34,24.213v81.7C434.506,423.773,441.645,413.869,447.957,403.403z"/>
	<g>
		<path fill="#FFCE54" d="M479.949,224.007c0,123.69-100.273,223.949-223.949,223.949c-123.69,0-223.949-100.259-223.949-223.949
			C32.051,100.324,132.31,0.059,256,0.059C379.676,0.059,479.949,100.324,479.949,224.007z"/>
	</g>
	<path fill="#E8AA3D" d="M303.988,319.985H282.65V117.367c0-5.89-4.764-10.669-10.654-10.669c-1.938,0-3.732,0.522-5.295,1.413
		v-0.008l-74.655,42.662h0.016c-3.218,1.844-5.39,5.296-5.39,9.256c0,5.89,4.78,10.662,10.669,10.662
		c1.921,0,3.734-0.516,5.296-1.406l0,0l26.697-15.254v165.962h-21.323l0,0c-5.889,0-10.669,4.779-10.669,10.653
		c0,5.905,4.78,10.685,10.669,10.685l0,0h95.978c5.891,0,10.654-4.779,10.654-10.685
		C314.643,324.765,309.879,319.985,303.988,319.985z M250.657,141.838l10.669-6.1v184.247h-10.669V141.838z"/>
</g>
</svg>
