<?xml version="1.0" encoding="utf-8"?>
<!-- Generator: Adobe Illustrator 16.0.0, SVG Export Plug-In . SVG Version: 6.00 Build 0)  -->
<!DOCTYPE svg PUBLIC "-//W3C//DTD SVG 1.1//EN" "http://www.w3.org/Graphics/SVG/1.1/DTD/svg11.dtd">
<svg version="1.1" id="Layer_1" xmlns="http://www.w3.org/2000/svg" xmlns:xlink="http://www.w3.org/1999/xlink" x="0px" y="0px"
	 width="512px" height="512px" viewBox="0 0 512 512" enable-background="new 0 0 512 512" xml:space="preserve">
<g id="cup">
	<g>
		<path fill="#F6BB42" d="M277.31,405.34h-42.655c-5.891,0-10.672-4.781-10.672-10.688V239.148c0-5.891,4.781-10.664,10.672-10.664
			h42.655c5.891,0,10.672,4.773,10.672,10.664v155.504C287.981,400.559,283.2,405.34,277.31,405.34z"/>
	</g>
	<path fill="#FFCE54" d="M319.981,351.998H191.984c-17.641,0-32,14.343-32,31.999v21.343c0,17.625,14.359,32,32,32h127.998
		c17.64,0,31.998-14.375,31.998-32v-21.343C351.979,366.341,337.621,351.998,319.981,351.998z"/>
	<path fill="#434A54" d="M373.308,383.997H138.657c-5.891,0-10.671,4.78-10.671,10.655v106.686c0,5.875,4.781,10.656,10.671,10.656
		h234.651c5.891,0,10.672-4.781,10.672-10.656V394.652C383.979,388.777,379.198,383.997,373.308,383.997z"/>
	<g>
		<path fill="#F6BB42" d="M379.011,224c-4.203,0-8.188-2.508-9.875-6.64c-2.219-5.453,0.391-11.68,5.859-13.906
			c41.218-16.797,67.842-48.366,79.139-93.826c5.797-23.335,5.906-44.663,5.344-56.288h-64.842c-5.891,0-10.656-4.781-10.656-10.671
			c0-5.891,4.766-10.664,10.656-10.664h74.67c5.328,0,9.828,3.922,10.562,9.188c0.203,1.383,4.594,34.14-4.844,72.842
			c-12.734,52.093-44.531,89.842-91.982,109.177C381.714,223.75,380.354,224,379.011,224z"/>
	</g>
	<g>
		<path fill="#F6BB42" d="M132.985,224c-1.344,0-2.703-0.25-4.023-0.789c-47.452-19.335-79.256-57.084-91.982-109.177
			c-9.445-38.702-5.047-71.459-4.852-72.842c0.734-5.266,5.242-9.188,10.562-9.188h74.67c5.891,0,10.664,4.773,10.664,10.664
			c0,5.89-4.773,10.671-10.664,10.671H52.518c-0.562,11.617-0.445,32.945,5.352,56.288c11.289,45.46,37.913,77.029,79.139,93.826
			c5.461,2.227,8.078,8.453,5.859,13.906C141.18,221.493,137.188,224,132.985,224z"/>
	</g>
	<g>
		<path fill="#FFCE54" d="M330.652,458.651H181.32c-5.891,0-10.664-4.766-10.664-10.655c0-5.891,4.773-10.656,10.664-10.656h149.333
			c5.891,0,10.656,4.766,10.656,10.656C341.309,453.886,336.543,458.651,330.652,458.651z"/>
	</g>
	<path fill="#FFCE54" d="M394.651,0.006h-277.33c-5.891,0-10.664,4.773-10.664,10.664v138.668c0,39.89,15.531,77.389,43.733,105.592
		c28.203,28.194,65.709,43.726,105.592,43.726c39.89,0,77.389-15.531,105.591-43.726c28.203-28.203,43.734-65.702,43.734-105.592
		V10.669C405.308,4.779,400.542,0.006,394.651,0.006z"/>
	<path opacity="0.2" fill="#FFFFFF" d="M394.651,0.006h-21.344c5.891,0,10.672,4.773,10.672,10.664v138.668
		c0,39.89-15.531,77.389-43.733,105.592c-25.687,25.663-59.062,40.851-94.928,43.351c3.531,0.25,7.086,0.375,10.664,0.375
		c39.89,0,77.389-15.531,105.591-43.726c28.203-28.203,43.734-65.702,43.734-105.592V10.669
		C405.308,4.779,400.542,0.006,394.651,0.006z"/>
	<path fill="#ED5564" d="M334.09,119.448c-1.25-3.859-4.594-6.672-8.609-7.258l-41.421-6.016l-18.508-37.53
		c-1.797-3.641-5.508-5.945-9.569-5.945c-4.055,0-7.766,2.305-9.562,5.945l-18.523,37.53l-41.413,6.016
		c-4.016,0.586-7.352,3.398-8.609,7.258c-1.25,3.859-0.203,8.102,2.703,10.938l29.968,29.21l-7.078,41.241
		c-0.688,4,0.961,8.047,4.242,10.438c3.289,2.383,7.64,2.695,11.234,0.812l37.039-19.477l37.046,19.477
		c1.547,0.82,3.25,1.219,4.953,1.219c2.219,0,4.422-0.688,6.266-2.031c3.297-2.391,4.938-6.438,4.25-10.438l-7.078-41.241
		l29.968-29.21C334.293,127.55,335.34,123.308,334.09,119.448z"/>
</g>
</svg>
