<?xml version="1.0" encoding="utf-8"?>
<!-- Generator: Adobe Illustrator 16.0.0, SVG Export Plug-In . SVG Version: 6.00 Build 0)  -->
<!DOCTYPE svg PUBLIC "-//W3C//DTD SVG 1.1//EN" "http://www.w3.org/Graphics/SVG/1.1/DTD/svg11.dtd">
<svg version="1.1" id="Layer_1" xmlns="http://www.w3.org/2000/svg" xmlns:xlink="http://www.w3.org/1999/xlink" x="0px" y="0px"
	 width="512px" height="512px" viewBox="0 0 512 512" enable-background="new 0 0 512 512" xml:space="preserve">
<g id="hot_heart">
	<path fill="#F6BB42" d="M394.65,209.174c-5.016-23.328-18.107-46.374-38.92-68.529c-22.172-23.577-34.67-51.154-37.154-81.935
		c-1.875-23.265,2.969-39.78,3.016-39.921l5.748-18.78l-18.889,5.406c-84.841,24.233-126.09,67.841-131.636,140.229
		c-8.125-3.891-15.859-7.109-17.25-7.688l-9.687-4.016l-4.188,9.625c-26.968,62.107-11.843,107.559,5.609,134.776
		c13.25,20.655,32.592,38.187,55.936,50.701c21.515,11.516,45.483,18.109,67.45,18.562c1.031,0.031,2.062,0.031,3.094,0.031
		c37.266,0,90.201-29.421,110.762-76.967C397.104,250.859,399.15,230.173,394.65,209.174z"/>
	<path fill="#FFCE54" d="M420.229,293.154c-2.688-34.279-34.922-52.326-61.498-61.435c-53.264-18.25-77.826-85.435-78.076-86.106
		l-5.109-14.391l-11.748,9.75c-48.14,39.937-63.905,82.638-49.937,136.823l-10.656-0.078l0.891,11.578
		c2.562,33.358,15.578,60.497,37.639,78.497c18.531,15.094,43.201,23.405,69.467,23.405l0,0c18.107,0,36.139-4.046,50.764-11.39
		c0.688-0.344,1.375-0.703,2.062-1.062c14.141-7.469,28.264-19.875,38.732-33.999C411.635,332.778,421.869,314.107,420.229,293.154z
		"/>
	<g>
		<path fill="#ED5564" d="M327.137,198.986c-27.873,0-53.061,11.452-71.137,29.905c-18.077-18.453-43.264-29.905-71.138-29.905
			c-54.998,0-99.59,44.592-99.59,99.59C85.271,412.4,256,511.991,256,511.991S426.729,412.4,426.729,298.576
			C426.729,243.578,382.137,198.986,327.137,198.986z"/>
	</g>
	<g opacity="0.2">
		<path fill="#FFFFFF" d="M327.137,198.986c-3.607,0-7.17,0.188-10.67,0.562c49.982,5.328,88.918,47.623,88.918,99.027
			c0,96.497-122.699,182.76-160.057,206.79c6.703,4.312,10.671,6.625,10.671,6.625S426.729,412.4,426.729,298.576
			C426.729,243.578,382.137,198.986,327.137,198.986z"/>
	</g>
</g>
</svg>
