<?xml version="1.0" encoding="utf-8"?>
<!-- Generator: Adobe Illustrator 16.0.0, SVG Export Plug-In . SVG Version: 6.00 Build 0)  -->
<!DOCTYPE svg PUBLIC "-//W3C//DTD SVG 1.1//EN" "http://www.w3.org/Graphics/SVG/1.1/DTD/svg11.dtd">
<svg version="1.1" id="Layer_1" xmlns="http://www.w3.org/2000/svg" xmlns:xlink="http://www.w3.org/1999/xlink" x="0px" y="0px"
	 width="512px" height="512px" viewBox="0 0 512 512" enable-background="new 0 0 512 512" xml:space="preserve">
<g id="medal">
	<path fill="#4A89DC" d="M511.18,43.927c-1.656-3.984-5.531-6.594-9.844-6.594H10.667c-4.312,0-8.203,2.609-9.852,6.594
		c-1.647,3.984-0.742,8.562,2.312,11.625l85.334,85.326c2,2,4.711,3.125,7.539,3.125h319.993c2.828,0,5.531-1.125,7.531-3.125
		l85.342-85.326C511.93,52.489,512.836,47.911,511.18,43.927z"/>
	<path fill="#5D9CEC" d="M244.193,266.453L18.214,40.458c-3.055-3.047-7.641-3.953-11.625-2.312
		c-3.984,1.656-6.585,5.547-6.585,9.859v127.997c0,2.828,1.124,5.547,3.124,7.547l202.816,202.807
		c2.031,2.031,4.758,3.125,7.547,3.125c0.991,0,1.999-0.141,2.983-0.422c3.742-1.094,6.586-4.141,7.43-7.936l23.164-104.826
		C247.857,272.734,246.771,269.016,244.193,266.453z"/>
	<path fill="#5D9CEC" d="M505.398,38.146c-3.969-1.641-8.562-0.734-11.625,2.312L271.372,262.875
		c-3.109,3.109-3.992,7.812-2.211,11.844l39.18,88.811c1.406,3.234,4.344,5.547,7.797,6.188c0.641,0.125,1.297,0.188,1.953,0.188
		c2.812,0,5.53-1.109,7.546-3.125l183.23-183.23c2-2,3.125-4.719,3.125-7.547V48.005C511.992,43.693,509.398,39.802,505.398,38.146z
		"/>
	<path fill="#F6BB42" d="M362.058,356.764v-20.766c0-2.266-0.719-4.469-2.031-6.297l-15.469-21.156
		c-19.874-29.561-52.967-47.217-88.56-47.217c-35.562,0-68.624,17.625-88.514,47.139L151.5,329.561
		c-1.406,1.844-2.164,4.109-2.164,6.438v32c0,58.811,47.851,106.668,106.662,106.668s106.653-47.857,106.653-106.668
		C362.651,364.279,362.464,360.514,362.058,356.764z"/>
	<path fill="#FFCE54" d="M255.998,229.329c-58.812,0-106.662,47.859-106.662,106.669s47.851,106.67,106.662,106.67
		s106.653-47.859,106.653-106.67S314.81,229.329,255.998,229.329z"/>
	<g>
		<path fill="#E8AA3D" d="M255.857,378.326c-5.891,0-10.672-4.766-10.672-10.656v-63.998c0-5.891,4.781-10.672,10.672-10.672
			c5.89,0,10.663,4.781,10.663,10.672v63.998C266.521,373.561,261.747,378.326,255.857,378.326z"/>
	</g>
</g>
</svg>
