<?xml version="1.0" encoding="utf-8"?>
<!-- Generator: Adobe Illustrator 16.0.0, SVG Export Plug-In . SVG Version: 6.00 Build 0)  -->
<!DOCTYPE svg PUBLIC "-//W3C//DTD SVG 1.1//EN" "http://www.w3.org/Graphics/SVG/1.1/DTD/svg11.dtd">
<svg version="1.1" id="Layer_1" xmlns="http://www.w3.org/2000/svg" xmlns:xlink="http://www.w3.org/1999/xlink" x="0px" y="0px"
	 width="512px" height="512px" viewBox="0 0 512 512" enable-background="new 0 0 512 512" xml:space="preserve">
<g id="olympic_flame">
	<path fill="#DA4453" d="M316.813,280.886c-2.016-2.219-4.875-3.484-7.891-3.484H203.074c-3.016,0-5.891,1.266-7.906,3.5
		c-2.031,2.234-3.015,5.219-2.703,8.219l21.328,213.276c0.531,5.453,5.125,9.594,10.609,9.594h63.975
		c5.484,0,10.078-4.172,10.609-9.641l20.547-213.261C319.829,286.089,318.845,283.12,316.813,280.886z"/>
	<path fill="#434A54" d="M206.214,426.695l7.578,75.701c0.531,5.453,5.125,9.594,10.609,9.594h63.975
		c5.484,0,10.078-4.172,10.609-9.641l7.297-75.654H206.214z"/>
	<path fill="#F6BB42" d="M356.046,157.592c-3.906-18.218-14.108-36.187-30.296-53.421c-16.437-17.483-25.718-37.905-27.608-60.686
		c-1.422-17.297,2.156-29.609,2.188-29.687c1.141-3.75,0.141-7.812-2.594-10.593c-2.734-2.797-6.781-3.859-10.547-2.781
		c-35.131,10.031-61.881,26.39-79.49,48.592c-12.094,15.25-19.984,33.375-23.562,54.061c-0.031-0.047-0.062-0.094-0.109-0.141
		c-2.328-2.906-6.031-4.39-9.734-3.89c-3.703,0.5-6.875,2.89-8.359,6.328c-8.953,20.594-12.844,40.78-11.578,59.999
		c1.156,17.531,6.531,33.874,15.969,48.608c10,15.577,24.296,28.749,41.374,38.108c15.937,8.734,33.858,13.734,50.388,14.062
		c0.812,0.031,1.625,0.031,2.438,0.031c15.195,0,33.008-6,48.883-16.469c17.093-11.281,30.529-26.812,37.842-43.718
		C357.983,190.419,359.593,174.139,356.046,157.592z"/>
	<path fill="#FFCE54" d="M298.079,170.342c-19.359-22.953-27.836-45.765-27.914-45.968c-1.219-3.375-4.047-5.891-7.531-6.734
		c-3.469-0.844-7.139,0.109-9.749,2.547c-21.546,20.031-36,39.218-43.015,57.03c-6.344,16.14-6.797,31.39-1.344,45.296
		c5.078,12.953,15.437,24.515,29.937,33.468c7.797,4.812,19.514,10.172,23.874,10.188h0.016c1.266,0,2.531-0.234,3.719-0.672
		c13.727-5.109,37.961-22.469,44.492-47.312C313.579,206.7,313.876,189.06,298.079,170.342z"/>
	<path fill="#ED5564" d="M331.031,234.746H181.746c-5.891,0-10.671,4.766-10.671,10.656v42.655c0,5.891,4.781,10.672,10.671,10.672
		h149.285c5.875,0,10.656-4.781,10.656-10.672v-42.655C341.688,239.512,336.906,234.746,331.031,234.746z"/>
	<path fill="#DA4453" d="M298.642,245.402c5.891,0,10.672-4.766,10.672-10.656h-21.328
		C287.985,240.637,292.751,245.402,298.642,245.402z"/>
	<path fill="#DA4453" d="M255.995,245.402c5.889,0,10.67-4.766,10.67-10.656h-21.327
		C245.338,240.637,250.104,245.402,255.995,245.402z"/>
	<path fill="#DA4453" d="M213.355,245.402c5.875,0,10.656-4.766,10.656-10.656h-21.328
		C202.683,240.637,207.464,245.402,213.355,245.402z"/>
</g>
</svg>
