<?xml version="1.0" encoding="utf-8"?>
<!-- Generator: Adobe Illustrator 16.0.0, SVG Export Plug-In . SVG Version: 6.00 Build 0)  -->
<!DOCTYPE svg PUBLIC "-//W3C//DTD SVG 1.1//EN" "http://www.w3.org/Graphics/SVG/1.1/DTD/svg11.dtd">
<svg version="1.1" id="Layer_1" xmlns="http://www.w3.org/2000/svg" xmlns:xlink="http://www.w3.org/1999/xlink" x="0px" y="0px"
	 width="512px" height="512px" viewBox="0 0 512 512" enable-background="new 0 0 512 512" xml:space="preserve">
<g id="muscles">
	<path fill="#EAC6BB" d="M490.135,282.999c-5.969-46.437-17.906-115.528-40.938-181.012c-1.578-4.484-5.938-7.382-10.672-7.109
		l-73.295,4.195c-5.438,0.305-9.766,4.671-10.031,10.117c-4.562,91.318-3.828,142.466-2.375,169.527
		c-20.702-14.304-56.561-32.054-106.873-32.054c-27.062,0-55.389,5.227-84.311,15.562c-5.047-7.266-14.015-18.5-27.5-29.672
		c-20.64-17.077-56.42-37.476-109.248-36.913c-5.843,0.062-10.546,4.82-10.546,10.664v295.032c0,4.156,2.438,7.938,6.219,9.688
		c1.421,0.656,2.937,0.969,4.453,0.969c2.5,0,4.984-0.875,6.953-2.578l92.873-79.92c41.015,29.343,92.357,44.811,149.122,44.811
		h0.031c46.266,0,94.748-10.483,136.466-29.529c41.077-18.75,71.593-43.719,85.904-70.327c0.891-1.641,1.328-3.484,1.281-5.359
		C497.603,367.653,496.587,333.279,490.135,282.999z"/>
	<g opacity="0.2">
		<path fill="#FFFFFF" d="M24.894,216.978c52.827-0.562,88.607,19.827,109.248,36.913c13.484,11.172,22.453,22.39,27.5,29.671
			c28.921-10.344,57.249-15.569,84.311-15.569c50.312,0,86.17,17.757,106.873,32.038c-0.312-6.031-0.609-13.266-0.812-21.875
			c-20.827-14.194-56.389-31.491-106.06-31.491c-27.062,0-55.389,5.227-84.311,15.562c-5.047-7.266-14.015-18.5-27.5-29.672
			c-20.64-17.077-56.42-37.476-109.248-36.913c-5.843,0.062-10.546,4.82-10.546,10.664v21.335
			C14.348,221.797,19.051,217.04,24.894,216.978z"/>
	</g>
	<g>
		<path fill="#DBAFA5" d="M25.019,511.994c-3,0-5.984-1.25-8.093-3.719c-3.844-4.453-3.328-11.188,1.141-15.031l128.122-110.247
			c4.468-3.844,11.203-3.344,15.046,1.125c3.844,4.468,3.344,11.202-1.125,15.03L31.972,509.416
			C29.957,511.15,27.488,511.994,25.019,511.994z"/>
	</g>
	<path fill="#ED5564" d="M449.197,101.987c-1.578-4.484-5.938-7.382-10.672-7.109l-73.295,4.195
		c-5.438,0.305-9.766,4.671-10.031,10.117c-1.094,21.727-1.875,41.179-2.422,58.577c12.781,3.219,26.391,4.445,39.75,4.445
		c31.28,0,61.029-6.734,74.701-10.336C462.15,142.065,456.182,121.862,449.197,101.987z"/>
	<path fill="#EAC6BB" d="M449.744,104.511c-0.047-0.578-1.391-14.257-5.078-31.03c-5.125-23.273-12.125-40.616-20.796-51.546
		c-1.266-1.602-2.844-3.094-10.375-6.539c-3.484-1.585-9.202-4.007-16.765-6.5c-12.25-4.055-31.156-8.89-51.594-8.89
		c-15.015,0-28.795,2.602-40.967,7.742c-24.625,10.382-42.375,39.616-36.547,60.155c2.344,8.234,7.219,13.227,12.203,16.086
		c0,0.336,0,0.68,0,1.023c0.234,9.789,4.828,17.351,12.578,20.733c3.703,1.617,7.922,2.438,12.547,2.438
		c2.641,0,5.203-0.273,7.547-0.664c3.531,7.617,9.968,15.328,20.671,17.797c1.734,0.398,3.594,0.602,5.547,0.602
		c8.28,0,18.187-8.328,24.905-11.547c6.516,5.727,16.844,15.617,32.422,15.617c0.969,0,1.953-0.016,2.953-0.062
		c30.857-1.234,45.967-15.188,47.592-16.773C448.9,110.894,450.057,107.722,449.744,104.511z"/>
	<path fill="#DBAFA5" d="M363.621,114.37c-6.719,3.219-16.625,0.875-24.905,0.875c-1.953,0-3.812-0.203-5.547-0.602
		c-10.703-2.469-17.14-10.172-20.671-17.789c-2.344,0.391-4.906,0.656-7.547,0.656c-4.625,0-8.844-0.812-12.547-2.43
		c-7.75-3.383-12.344-10.945-12.578-20.742c0-0.344,0-0.68,0-1.016c-4.984-2.859-9.859-7.852-12.203-16.094
		c-0.297-1.039-0.516-2.109-0.688-3.195c-0.703,4.835-0.531,9.539,0.688,13.867c2.344,8.234,7.219,13.227,12.203,16.086
		c0,0.336,0,0.68,0,1.023c0.234,9.789,4.828,17.351,12.578,20.733c3.703,1.617,7.922,2.438,12.547,2.438
		c2.641,0,5.203-0.273,7.547-0.664c3.531,7.617,9.968,15.328,20.671,17.797c1.734,0.398,3.594,0.602,5.547,0.602
		C346.996,125.917,358.152,123.87,363.621,114.37z"/>
</g>
</svg>
