<?xml version="1.0" encoding="utf-8"?>
<!-- Generator: Adobe Illustrator 16.0.0, SVG Export Plug-In . SVG Version: 6.00 Build 0)  -->
<!DOCTYPE svg PUBLIC "-//W3C//DTD SVG 1.1//EN" "http://www.w3.org/Graphics/SVG/1.1/DTD/svg11.dtd">
<svg version="1.1" id="Layer_1" xmlns="http://www.w3.org/2000/svg" xmlns:xlink="http://www.w3.org/1999/xlink" x="0px" y="0px"
	 width="512px" height="512px" viewBox="0 0 512 512" enable-background="new 0 0 512 512" xml:space="preserve">
<g id="money_bag">
	<path fill="#8CC153" d="M318.729,0.164c-5.887,0-10.665,4.778-10.665,10.665H286.75c0-5.887-4.778-10.665-10.665-10.665
		S265.42,4.942,265.42,10.829h-21.314c0-5.887-4.778-10.665-10.665-10.665s-10.649,4.778-10.649,10.665h-21.33
		c0-5.887-4.763-10.665-10.649-10.665c-5.887,0-10.665,4.778-10.665,10.665l42.645,106.604h63.959l42.629-106.604
		C329.379,4.942,324.616,0.164,318.729,0.164z"/>
	<g>
		<path fill="#A0D468" d="M254.958,95.665c-224.997,0-281.382,416.171,1.92,416.171C540.182,511.836,479.955,95.665,254.958,95.665z
			"/>
	</g>
	<path fill="#E6E9ED" d="M265.42,192.041c0-5.887-4.763-10.649-10.649-10.649s-10.665,4.763-10.665,10.649
		c0,0.421,0.031,0.843,0.078,1.249v233.272c0,5.887,4.778,10.665,10.665,10.665s10.649-4.778,10.649-10.665V192.041H265.42z"/>
	<g>
		<path fill="#434A54" d="M308.064,106.768H201.461c-5.887,0-10.649-4.778-10.649-10.665c0-5.887,4.763-10.649,10.649-10.649
			h106.604c5.887,0,10.665,4.762,10.665,10.649C318.729,101.989,313.951,106.768,308.064,106.768z"/>
	</g>
	<path fill="#F5F7FA" d="M301.74,339.946l-76.419-76.373c-9.947-9.931-12.883-18.035-11.399-21.643
		c2.077-4.997,13.226-7.245,23.36-7.245h70.861c5.887,0,10.665-4.778,10.665-10.665s-4.778-10.649-10.665-10.649h-70.861
		c-30.106,0-39.896,12.789-43.051,20.409c-7.354,17.77,6.886,35.743,16.021,44.877l76.42,76.373
		c9.947,9.931,12.898,18.035,11.398,21.643c-2.076,5.012-13.226,7.245-23.359,7.245h-73.172c-5.887,0-10.649,4.778-10.649,10.665
		s4.762,10.665,10.649,10.665h73.172c30.105,0,39.896-12.805,43.051-20.425C325.116,367.054,310.891,349.081,301.74,339.946z"/>
</g>
</svg>
