<?xml version="1.0" encoding="utf-8"?>
<!-- Generator: Adobe Illustrator 16.0.0, SVG Export Plug-In . SVG Version: 6.00 Build 0)  -->
<!DOCTYPE svg PUBLIC "-//W3C//DTD SVG 1.1//EN" "http://www.w3.org/Graphics/SVG/1.1/DTD/svg11.dtd">
<svg version="1.1" id="Layer_1" xmlns="http://www.w3.org/2000/svg" xmlns:xlink="http://www.w3.org/1999/xlink" x="0px" y="0px"
	 width="512px" height="512px" viewBox="0 0 512 512" enable-background="new 0 0 512 512" xml:space="preserve">
<g id="pedestal">
	<g>
		<path fill="#F6BB42" d="M256,213.341c-5.906,0-10.672-4.781-10.672-10.672v-42.663c0-5.891,4.766-10.664,10.672-10.664
			c5.874,0,10.655,4.773,10.655,10.664v42.663C266.655,208.56,261.874,213.341,256,213.341z"/>
	</g>
	<path fill="#434A54" d="M309.327,192.005h-106.67c-5.891,0-10.656,4.773-10.656,10.664v42.671c0,5.891,4.765,10.664,10.656,10.664
		h106.67c5.891,0,10.672-4.773,10.672-10.664v-42.671C319.999,196.779,315.218,192.005,309.327,192.005z"/>
	<g>
		<path fill="#FC6E51" d="M479.995,362.658H330.654c-5.891,0-10.655,4.781-10.655,10.688v106.652
			c0,5.891,4.765,10.656,10.655,10.656h149.341c5.875,0,10.656-4.766,10.656-10.656V373.346
			C490.651,367.439,485.87,362.658,479.995,362.658z"/>
		<path fill="#FC6E51" d="M181.33,320.002H32.005c-5.906,0-10.671,4.781-10.671,10.656v149.34c0,5.891,4.765,10.656,10.671,10.656
			H181.33c5.891,0,10.672-4.766,10.672-10.656v-149.34C192.001,324.783,187.22,320.002,181.33,320.002z"/>
	</g>
	<path fill="#FFCE54" d="M330.654,234.668H181.33c-5.891,0-10.671,4.781-10.671,10.672v234.658c0,5.891,4.781,10.656,10.671,10.656
		h149.325c5.891,0,10.672-4.766,10.672-10.656V245.34C341.326,239.45,336.545,234.668,330.654,234.668z"/>
	<g>
		<path fill="#434A54" d="M501.322,490.654H10.662c-5.891,0-10.656-4.766-10.656-10.656s4.765-10.654,10.656-10.654h490.661
			c5.891,0,10.672,4.764,10.672,10.654S507.213,490.654,501.322,490.654z"/>
	</g>
	<g>
		<path fill="#F6BB42" d="M200.548,138.679c-1.234,0-2.5-0.219-3.734-0.688c-46.717-17.515-57.577-80.256-58.014-82.912
			c-0.5-3.094,0.375-6.25,2.391-8.641c2.031-2.382,5-3.765,8.141-3.765h42.671c5.875,0,10.656,4.781,10.656,10.671
			c0,5.89-4.781,10.664-10.656,10.664h-29.046c5.016,16.555,16.921,44.851,41.343,54.015c5.516,2.062,8.312,8.211,6.25,13.727
			C208.938,136.03,204.876,138.679,200.548,138.679z"/>
	</g>
	<g>
		<path fill="#F6BB42" d="M311.421,138.679c-4.312,0-8.375-2.648-9.984-6.929c-2.062-5.516,0.734-11.664,6.25-13.727
			c24.546-9.211,36.404-37.476,41.373-54.015h-29.061c-5.906,0-10.672-4.773-10.672-10.664c0-5.891,4.766-10.671,10.672-10.671
			h42.654c3.141,0,6.109,1.383,8.141,3.765c2.016,2.391,2.891,5.547,2.391,8.641c-0.438,2.656-11.297,65.397-58.014,82.912
			C313.937,138.46,312.671,138.679,311.421,138.679z"/>
	</g>
	<path fill="#FFCE54" d="M319.999,21.345H192.001c-5.906,0-10.672,4.773-10.672,10.664v63.999c0,41.171,33.483,74.663,74.67,74.663
		c41.155,0,74.654-33.492,74.654-74.663V32.009C330.654,26.119,325.873,21.345,319.999,21.345z"/>
	<g>
		<path fill="#E8AA3D" d="M256,117.343c-5.906,0-10.672-4.781-10.672-10.672V74.672c0-5.891,4.766-10.664,10.672-10.664
			c5.874,0,10.655,4.773,10.655,10.664v31.999C266.655,112.562,261.874,117.343,256,117.343z"/>
	</g>
</g>
</svg>
