<?xml version="1.0" encoding="utf-8"?>
<!-- Generator: Adobe Illustrator 16.0.0, SVG Export Plug-In . SVG Version: 6.00 Build 0)  -->
<!DOCTYPE svg PUBLIC "-//W3C//DTD SVG 1.1//EN" "http://www.w3.org/Graphics/SVG/1.1/DTD/svg11.dtd">
<svg version="1.1" id="Layer_1" xmlns="http://www.w3.org/2000/svg" xmlns:xlink="http://www.w3.org/1999/xlink" x="0px" y="0px"
	 width="512px" height="512px" viewBox="0 0 512 512" enable-background="new 0 0 512 512" xml:space="preserve">
<g id="medal_1">
	<path fill="#F6BB42" d="M346.499,383.998C333.297,346.748,297.72,320,256.001,320s-77.303,26.748-90.506,63.998h-5.492v32
		c0,52.936,43.062,95.998,95.999,95.998c52.937,0,95.998-43.062,95.998-95.998v-32H346.499z"/>
	<g>
		<path fill="#F6BB42" d="M256.001,309.344c-5.891,0-10.664-4.781-10.664-10.672v-21.328c0-5.898,4.773-10.672,10.664-10.672
			c5.89,0,10.664,4.773,10.664,10.672v21.328C266.665,304.562,261.892,309.344,256.001,309.344z"/>
	</g>
	<path fill="#ED5564" d="M392.937,189.064L340.922,7.731c-1.312-4.57-5.5-7.727-10.266-7.727H181.338
		c-4.757,0-8.945,3.156-10.257,7.727l-52.015,181.333c-1.273,4.445,0.453,9.203,4.289,11.789l126.685,85.334
		c1.805,1.219,3.883,1.812,5.961,1.812c2.078,0,4.156-0.594,5.96-1.812l126.678-85.334
		C392.483,198.267,394.202,193.509,392.937,189.064z"/>
	<path fill="#DA4453" d="M266.274,274.469L191.604,7.801c-1.281-4.594-5.461-7.781-10.234-7.797
		c-4.796-0.008-8.968,3.141-10.289,7.727l-52.015,181.333c-1.273,4.445,0.453,9.203,4.289,11.789l126.685,85.334
		c1.805,1.219,3.883,1.812,5.961,1.812c2.195,0,4.382-0.672,6.242-2.016C265.868,283.375,267.478,278.766,266.274,274.469z"/>
	<polygon fill="#FFCE54" points="241.908,0.004 312.938,251.844 331.562,239.297 264.079,0.004 	"/>
	<polygon fill="#F6BB42" points="180.518,239.352 199.213,251.946 228.994,141.338 217.736,101.112 	"/>
	<path fill="#FFCE54" d="M256.001,288c-52.937,0-95.999,43.062-95.999,95.998c0,52.938,43.062,95.998,95.999,95.998
		c52.937,0,95.998-43.061,95.998-95.998C351.999,331.062,308.938,288,256.001,288z"/>
</g>
</svg>
